<svg width="74" height="54" viewBox="0 0 74 54" fill="none" xmlns="http://www.w3.org/2000/svg">
<path d="M1.42201 41.9547C-0.467927 39.9414 -0.331733 36.8165 1.7262 34.9753L38.6022 1.98131C40.6601 0.140015 43.8605 0.279503 45.7505 2.29286L52.7472 9.74653C54.6371 11.7599 54.5009 14.8847 52.443 16.726L15.567 49.7199C13.509 51.5612 10.3087 51.4217 8.41873 49.4084L1.42201 41.9547Z" fill="#5562FF"/>
<path d="M20.9572 44.8051C19.0672 42.7917 19.2034 39.6669 21.2614 37.8256L57.6066 5.30656C59.6645 3.46527 62.8649 3.60476 64.7548 5.61812L71.7515 13.0718C73.6415 15.0851 73.5053 18.21 71.4473 20.0513L35.1021 52.5703C33.0442 54.4116 29.8438 54.2721 27.9539 52.2587L20.9572 44.8051Z" fill="#FE421C"/>
</svg>
